<svg width="82" height="82" viewBox="0 0 82 82" fill="none" xmlns="http://www.w3.org/2000/svg">
<path d="M64.4383 6.46703L62.9191 7.98621L56.7817 1.84874C55.3409 0.407955 52.9965 0.407958 51.5557 1.84874L47.6666 5.73783C47.3913 6.0131 47.1694 6.3218 46.9994 6.65055L46.6336 6.28473C44.6567 4.30786 41.4399 4.30786 39.4631 6.28473L34.6017 11.1461C32.6248 13.123 32.6248 16.3397 34.6017 18.3166L45.3321 29.047L29.0465 45.3325L18.3162 34.6021C16.3393 32.6253 13.1225 32.6253 11.1457 34.6021L6.2843 39.4635C4.30742 41.4404 4.30742 44.6571 6.2843 46.634L6.65011 46.9998C6.32136 47.1699 6.01267 47.3918 5.73739 47.667L1.84831 51.5561C0.407521 52.9969 0.407521 55.3413 1.84831 56.7821L3.02561 57.9594C3.529 58.4628 4.34522 58.4628 4.84861 57.9594C5.35201 57.456 5.35201 56.6398 4.84861 56.1364L3.67132 54.9591C3.23574 54.5235 3.23574 53.8147 3.67132 53.3791L7.5604 49.4901C7.99598 49.0545 8.70477 49.0545 9.14034 49.4901L32.961 73.3107C33.3966 73.7463 33.3966 74.4551 32.961 74.8907L29.0719 78.7797C28.6363 79.2153 27.9276 79.2153 27.492 78.7797L8.74888 60.0367C8.24549 59.5333 7.42927 59.5333 6.92588 60.0367C6.42248 60.5401 6.42248 61.3563 6.92588 61.8597L7.98577 62.9196L6.4666 64.4387C5.29392 65.6114 5.29392 67.5197 6.4666 68.6924L13.7586 75.9845C14.9313 77.1571 16.8396 77.1571 18.0123 75.9845L19.5315 74.4653L25.669 80.6028C27.1098 82.0435 29.4541 82.0435 30.8949 80.6028L34.784 76.7137C35.0593 76.4384 35.2812 76.1297 35.4512 75.8009L35.8171 76.1668C37.7939 78.1436 41.0107 78.1436 42.9876 76.1668L47.8489 71.3054C49.8258 69.3285 49.8258 66.1118 47.8489 64.1349L37.1186 53.4045L38.4452 52.0779C38.9486 51.5745 38.9486 50.7583 38.4452 50.2549C37.9418 49.7515 37.1256 49.7515 36.6222 50.2549L35.2956 51.5815L30.8695 47.1555L47.1551 30.87L51.5811 35.296L40.5735 46.3036C40.0701 46.807 40.0701 47.6232 40.5735 48.1266C41.0769 48.63 41.8931 48.63 42.3965 48.1266L53.4041 37.119L64.1345 47.8494C66.1113 49.8262 69.3281 49.8262 71.305 47.8494L76.1663 42.988C78.1432 41.0111 78.1432 37.7944 76.1663 35.8175L75.8005 35.4517C76.1293 35.2816 76.438 35.0597 76.7132 34.7844L80.6023 30.8954C82.0431 29.4546 82.0431 27.1102 80.6023 25.6694L79.3714 24.4385C78.868 23.9351 78.0518 23.9351 77.5484 24.4385C77.045 24.9419 77.045 25.7581 77.5484 26.2615L78.7793 27.4924C79.2149 27.928 79.2149 28.6368 78.7793 29.0724L74.8902 32.9614C74.4546 33.397 73.7459 33.397 73.3103 32.9614L49.4896 9.14078C49.054 8.7052 49.054 7.99641 49.4896 7.56084L53.3787 3.67175C53.8143 3.23617 54.5231 3.23617 54.9587 3.67175L73.6141 22.3272C74.1175 22.8306 74.9337 22.8306 75.4371 22.3272C75.9405 21.8238 75.9405 21.0076 75.4371 20.5042L74.4649 19.5319L75.984 18.0128C77.1567 16.8401 77.1567 14.9318 75.984 13.7591L68.692 6.46703C67.5193 5.29435 65.611 5.29435 64.4383 6.46703ZM16.1893 74.1615C16.0218 74.3289 15.7491 74.3289 15.5816 74.1615L8.28961 66.8694C8.12213 66.7019 8.12213 66.4292 8.28961 66.2617L9.80878 64.7426L17.7085 72.6423L16.1893 74.1615ZM46.0259 65.9579C46.9976 66.9296 46.9976 68.5107 46.0259 69.4824L41.1645 74.3438C40.1929 75.3154 38.6117 75.3154 37.6401 74.3438L8.10731 44.811C7.13564 43.8393 7.13564 42.2582 8.10731 41.2865L12.9687 36.4252C13.9403 35.4535 15.5215 35.4535 16.4932 36.4252L46.0259 65.9579ZM74.3433 37.6405C75.315 38.6122 75.315 40.1933 74.3433 41.165L69.482 46.0263C68.5103 46.998 66.9291 46.998 65.9575 46.0263L36.4247 16.4936C35.4531 15.5219 35.4531 13.9408 36.4247 12.9691L41.2861 8.10774C42.2577 7.13608 43.8389 7.13608 44.8106 8.10774L74.3433 37.6405ZM74.161 15.5821C74.3285 15.7496 74.3285 16.0223 74.161 16.1897L72.6418 17.7089L64.7421 9.80922L66.2613 8.29004C66.4288 8.12257 66.7015 8.12257 66.869 8.29004L74.161 15.5821Z" fill="#00A0B6"/>
</svg>
