<svg width="77" height="73" viewBox="0 0 77 73" fill="none" xmlns="http://www.w3.org/2000/svg">
<path d="M0.611839 26.4218C0.611839 14.4999 9.53899 4.80067 20.5118 4.80067C31.4847 4.80067 40.4119 14.4999 40.4119 26.4218C40.4119 32.2885 38.2491 37.6159 34.7457 41.5151C38.0368 44.0348 42.0743 45.7195 46.1995 46.2767C45.2812 43.5724 44.937 40.676 45.2311 37.7684C45.6155 33.9675 47.0455 30.5596 49.1895 28.1631C46.072 24.4514 44.6055 19.348 45.3052 14.2427C46.266 7.23312 51.412 1.48399 57.8195 0.261838C62.4009 -0.612135 67.0426 0.72469 70.5548 3.9291C74.069 7.13543 76.0845 11.8317 76.0845 16.8138V19.6801C76.0845 38.9706 68.5359 58.1609 52.3389 72.2393C45.2473 70.6976 38.9739 68.2986 32.4177 63.147C27.2515 59.0877 22.8745 53.8796 19.694 48.0232C9.09897 47.5552 0.611839 38.0459 0.611839 26.4218ZM51.1785 67.0821C64.2096 55.3369 71.6622 38.1247 71.6622 19.6801V16.8138C71.6622 13.255 70.2221 9.89988 67.711 7.60869C65.1651 5.28578 61.9241 4.35703 58.5841 4.9943C54.0976 5.85001 50.3526 10.0373 49.6792 14.9507C49.0697 19.3978 50.649 23.6652 53.9041 26.3659L56.4698 28.4947L53.7157 30.3246C51.5448 31.7668 49.9782 34.8204 49.6267 38.2933C49.1836 42.6733 50.705 47.0473 53.8006 50.2942L50.7292 53.751C50.0084 52.9951 49.3539 52.1903 48.7654 51.3469L46.9181 51.1861C41.1437 50.6835 35.6151 48.3737 31.2064 44.6479C29.2307 46.0212 27.0177 47.0249 24.6509 47.5712C30.6659 57.3883 40.3385 64.5463 51.1785 67.0821ZM20.5118 43.2382C29.0463 43.2382 35.9896 35.6943 35.9896 26.4218C35.9896 17.1492 29.0463 9.60536 20.5118 9.60536C11.9774 9.60536 5.03407 17.1492 5.03407 26.4218C5.03407 35.6943 11.9774 43.2382 20.5118 43.2382Z" fill="#F54242"/>
</svg>
