<svg width="76" height="82" viewBox="0 0 76 82" fill="none" xmlns="http://www.w3.org/2000/svg">
<path d="M63.0474 65.5795H68.9437C70.366 65.5795 71.5233 64.3221 71.5233 62.7768V59.2045H73.6607C74.9206 59.2045 75.9455 58.0909 75.9455 56.7221V45.5111C75.9455 44.1423 74.9206 43.0287 73.6607 43.0287H71.5233V39.7144C71.5233 38.1691 70.366 36.9117 68.9437 36.9117H68.7226V36.0446H70.86C72.1199 36.0446 73.1448 34.931 73.1448 33.5622V25.0203C73.1448 23.6514 72.1199 22.5378 70.86 22.5378H68.7226V19.2236C68.7226 17.6782 67.5653 16.4208 66.1429 16.4208H63.6237V15.8555H66.0566C67.1539 15.8555 68.0466 14.8856 68.0466 13.6934V7.12695C68.0466 5.93475 67.1539 4.96484 66.0566 4.96484H63.6237V2.48242C63.6237 1.11357 62.5988 0 61.3389 0H54.8545C53.5938 0 52.5682 1.11357 52.5682 2.48242V6.80664H51.1889C50.5782 6.80664 50.0833 7.34429 50.0833 8.00781C50.0833 8.67134 50.5782 9.20898 51.1889 9.20898H52.5682V11.6113H44.8709V9.20898H46.4169C47.0276 9.20898 47.5224 8.67134 47.5224 8.00781C47.5224 7.34429 47.0276 6.80664 46.4169 6.80664H43.737V2.16211C43.737 0.969906 42.8443 0 41.747 0H34.6714C33.5741 0 32.6814 0.969906 32.6814 2.16211V6.80664H24.0021V2.80273C24.0021 1.25739 22.8448 0 21.4225 0H15.5262C14.1038 0 12.9465 1.25739 12.9465 2.80273V4.96484H10.5146C9.41729 4.96484 8.52459 5.93475 8.52459 7.12695V13.6934C8.52459 14.8856 9.41729 15.8555 10.5146 15.8555H12.9465V16.4208H10.2755C8.85316 16.4208 7.69587 17.6782 7.69587 19.2236V22.5377H5.85327C4.43094 22.5377 3.27364 23.7951 3.27364 25.3404V33.2417C3.27364 34.7871 4.43094 36.0444 5.85327 36.0444H7.69587V36.9115H7.47476C6.05242 36.9115 4.89512 38.1689 4.89512 39.7143V43.0285H3.05253C1.6302 43.0285 0.4729 44.2859 0.4729 45.8313V56.4016C0.4729 57.9469 1.6302 59.2043 3.05253 59.2043H4.89512V62.7766C4.89512 64.322 6.05242 65.5793 7.47476 65.5793H13.3711C14.7934 65.5793 15.9507 64.322 15.9507 62.7766V54.7199H27.2274V56.4858C27.2274 58.1614 28.4821 59.5246 30.0243 59.5246H32.6814V71.9102H7.08354C3.43844 71.9102 0.4729 75.1322 0.4729 79.0927C0.4729 80.6957 1.67339 82 3.14894 82H73.2696C74.7452 82 75.9455 80.6957 75.9455 79.0925C75.9455 75.132 72.9801 71.9102 69.3349 71.9102H57.0441C56.4333 71.9102 55.9385 72.4478 55.9385 73.1113C55.9385 73.7749 56.4333 74.3125 57.0441 74.3125H69.3349C71.7608 74.3125 73.7344 76.457 73.7344 79.0927C73.7344 79.371 73.5258 79.5977 73.2696 79.5977H3.14894C2.89259 79.5977 2.68401 79.371 2.68401 79.0925C2.68401 76.4568 4.65765 74.3125 7.08354 74.3125H52.3132C52.9239 74.3125 53.4187 73.7749 53.4187 73.1113C53.4187 72.4478 52.9239 71.9102 52.3132 71.9102H43.737V59.5248H46.394C47.9363 59.5248 49.1911 58.1615 49.1911 56.486V54.7201H60.4677V62.7768C60.4677 64.3221 61.625 65.5795 63.0474 65.5795ZM63.6243 7.36719H65.8354V13.4531H63.6243V7.36719ZM49.1572 52.3178H27.2614V49.9154H49.1572V52.3178ZM15.9507 42.419H16.1718C17.5941 42.419 18.7514 41.1616 18.7514 39.6162V32.8945H27.2274V34.6602C27.2274 36.3359 28.4821 37.6992 30.0243 37.6992H32.6814V41C32.6814 41.6635 33.1764 42.2012 33.787 42.2012C34.3976 42.2012 34.8925 41.6635 34.8925 41V37.6993H41.5259V47.5131H34.8925V46.1327C34.8925 45.4692 34.3976 44.9315 33.787 44.9315C33.1764 44.9315 32.6814 45.4692 32.6814 46.1327V47.5131H15.9507V42.419ZM41.5259 18.8184V25.6876H34.8925V18.8184H41.5259ZM43.7899 28.09V30.4923H32.6285V28.09H43.7899ZM57.667 28.09V30.4923H46.001V28.09H57.667ZM42.6342 35.297C42.6334 35.297 42.6323 35.2968 42.6314 35.2968C42.6306 35.2968 42.6295 35.297 42.6286 35.297H33.7899C33.7891 35.297 33.788 35.2968 33.7871 35.2968C33.7863 35.2968 33.7852 35.297 33.7843 35.297H30.0244C29.7014 35.297 29.4386 35.0114 29.4386 34.6604V32.8947H46.9801V34.6604C46.9801 35.0113 46.7173 35.297 46.3942 35.297H42.6342ZM30.4174 30.4923H18.7514V28.09H30.4174V30.4923ZM43.737 47.5131V37.6993H46.394C47.9363 37.6993 49.1911 36.3361 49.1911 34.6604V32.8947H57.667V39.6164C57.667 41.1618 58.8243 42.4191 60.2466 42.4191H60.4677V47.5132H43.737V47.5131ZM73.6607 45.431C73.7013 45.431 73.7344 45.4671 73.7344 45.5111V56.7221C73.7344 56.7661 73.7013 56.8021 73.6607 56.8021H71.5233V45.431H73.6607ZM69.3122 39.7144V62.7768C69.3122 62.9976 69.1469 63.1772 68.9437 63.1772H63.0474C62.8441 63.1772 62.6789 62.9976 62.6789 62.7768V39.7144C62.6789 39.4936 62.8441 39.314 63.0474 39.314H68.9437C69.1469 39.314 69.3122 39.4936 69.3122 39.7144ZM70.86 24.9402C70.9005 24.9402 70.9337 24.9762 70.9337 25.0203V33.5622C70.9337 33.6062 70.9005 33.6423 70.86 33.6423H68.7226V24.9402H70.86ZM66.5115 19.2236V36.9115H63.0474C61.625 36.9115 60.4677 38.1689 60.4677 39.7143V40.0166H60.2466C60.0434 40.0166 59.8781 39.8371 59.8781 39.6162V19.2236C59.8781 19.0027 60.0434 18.8232 60.2466 18.8232H66.1429C66.3462 18.8232 66.5115 19.0027 66.5115 19.2236ZM54.8545 2.40234H61.3389C61.3795 2.40234 61.4126 2.43838 61.4126 2.48242V16.4208H60.2466C59.082 16.4208 58.0963 17.2642 57.7768 18.418H54.8545C54.813 18.418 54.7793 18.3819 54.7793 18.3379V12.8248C54.7793 12.8207 54.7799 12.8167 54.7799 12.8125V8.00781C54.7799 8.00365 54.7793 7.99964 54.7793 7.99548V2.48242C54.7793 2.43838 54.813 2.40234 54.8545 2.40234ZM54.8545 20.8203H57.667V25.6876H43.737V18.8184H46.394C47.9363 18.8184 49.1911 17.4551 49.1911 15.7794V14.0137H52.5682V18.3379C52.5682 19.7067 53.5938 20.8203 54.8545 20.8203ZM46.98 15.7794C46.98 16.1303 46.7171 16.416 46.394 16.416H30.0243C29.7013 16.416 29.4385 16.1305 29.4385 15.7794V14.0137H46.98V15.7794ZM42.6597 11.6113H33.9113V9.20898H42.6597V11.6113ZM41.5259 2.40234V6.80664H34.8925V2.40234H41.5259ZM24.0024 9.20898H31.7003V11.6113H24.0024V9.20898ZM27.2274 14.0137V15.7794C27.2274 17.4551 28.4821 18.8184 30.0243 18.8184H32.6814V25.6876H18.7514V20.8203H21.4225C22.8448 20.8203 24.0021 19.5629 24.0021 18.0176V14.0137H27.2274ZM10.7357 13.4531V7.36719H12.9465V13.4531H10.7357ZM15.1576 14.6589C15.1576 14.6573 15.1578 14.6557 15.1578 14.6543V6.16602C15.1578 6.16441 15.1576 6.16281 15.1576 6.16137V2.80273C15.1576 2.58188 15.323 2.40234 15.5262 2.40234H21.4225C21.6256 2.40234 21.791 2.58188 21.791 2.80273V18.0176C21.791 18.2384 21.6256 18.418 21.4225 18.418H18.6416C18.3222 17.2642 17.3365 16.4208 16.1718 16.4208H15.1576V14.6589ZM5.85327 33.6423C5.65015 33.6423 5.48476 33.4627 5.48476 33.2419V25.3406C5.48476 25.1197 5.65015 24.9402 5.85327 24.9402H7.69587V33.6423H5.85327ZM9.90698 19.2236C9.90698 19.0027 10.0724 18.8232 10.2755 18.8232H16.1718C16.3749 18.8232 16.5403 19.0027 16.5403 19.2236V39.6162C16.5403 39.8371 16.3749 40.0166 16.1718 40.0166H15.9507V39.7143C15.9507 38.1689 14.7934 36.9115 13.3711 36.9115H9.90698V19.2236ZM3.05253 56.8021C2.8494 56.8021 2.68401 56.6226 2.68401 56.4017V45.8314C2.68401 45.6106 2.8494 45.431 3.05253 45.431H4.89512V56.8021H3.05253ZM13.7396 62.7768C13.7396 62.9976 13.5742 63.1772 13.3711 63.1772H7.47476C7.27163 63.1772 7.10624 62.9976 7.10624 62.7768V39.7144C7.10624 39.4936 7.27163 39.314 7.47476 39.314H13.3711C13.5742 39.314 13.7396 39.4936 13.7396 39.7144V62.7768ZM15.9507 49.9154H25.0503V52.3178H15.9507V49.9154ZM41.5259 71.9102H34.8925V59.5248H41.5259V71.9102ZM46.98 56.486C46.98 56.8369 46.7171 57.1224 46.394 57.1224H30.0243C29.7013 57.1224 29.4385 56.8371 29.4385 56.486V54.7201H46.98V56.486ZM51.3683 52.3178V49.9154H60.4677V52.3178H51.3683Z" fill="#4F74CF"/>
</svg>
