<svg width="77" height="82" viewBox="0 0 77 82" fill="none" xmlns="http://www.w3.org/2000/svg">
<path d="M60.5471 52.3154C59.9713 51.6902 59.0382 51.6902 58.4622 52.3154L55.6315 55.3909L54.6506 54.3252C54.0748 53.7 53.1417 53.7 52.5658 54.3252C51.9901 54.9506 51.9901 55.9648 52.5658 56.5903L54.5891 58.7886C54.877 59.1012 55.2543 59.2577 55.6315 59.2577C56.0087 59.2577 56.3859 59.1012 56.6738 58.7886L60.5469 54.5807C61.1229 53.9551 61.1229 52.941 60.5471 52.3154Z" fill="#E0B30E"/>
<path d="M59.5046 63.7419H53.6082C52.7941 63.7419 52.134 64.4591 52.134 65.3435V71.7497C52.134 72.6341 52.7941 73.3513 53.6082 73.3513H59.5046C60.3187 73.3513 60.9788 72.6341 60.9788 71.7497V65.3435C60.9788 64.4591 60.3187 63.7419 59.5046 63.7419ZM58.0305 70.1482H55.0823V66.9451H58.0305V70.1482Z" fill="#E0B30E"/>
<path d="M66.8743 66.9451H68.6432C69.4572 66.9451 70.1173 66.2279 70.1173 65.3435C70.1173 64.4591 69.4572 63.7419 68.6432 63.7419H66.8743C66.0603 63.7419 65.4001 64.4591 65.4001 65.3435C65.4001 66.2279 66.0603 66.9451 66.8743 66.9451Z" fill="#E0B30E"/>
<path d="M66.8743 73.3513H68.6432C69.4572 73.3513 70.1173 72.6341 70.1173 71.7498C70.1173 70.8654 69.4572 70.1482 68.6432 70.1482H66.8743C66.0603 70.1482 65.4001 70.8654 65.4001 71.7498C65.4001 72.6341 66.0603 73.3513 66.8743 73.3513Z" fill="#E0B30E"/>
<path d="M66.8743 54.1326H68.6432C69.4572 54.1326 70.1173 53.4154 70.1173 52.531C70.1173 51.6466 69.4572 50.9294 68.6432 50.9294H66.8743C66.0603 50.9294 65.4001 51.6466 65.4001 52.531C65.4001 53.4154 66.0603 54.1326 66.8743 54.1326Z" fill="#E0B30E"/>
<path d="M66.8743 60.5388H68.6432C69.4572 60.5388 70.1173 59.8216 70.1173 58.9373C70.1173 58.0529 69.4572 57.3357 68.6432 57.3357H66.8743C66.0603 57.3357 65.4001 58.0529 65.4001 58.9373C65.4001 59.8216 66.0603 60.5388 66.8743 60.5388Z" fill="#E0B30E"/>
<path d="M47.7119 63.4216C48.0996 63.4216 48.4785 63.2503 48.754 62.9522C49.0282 62.6545 49.186 62.2413 49.186 61.8201C49.186 61.3989 49.0283 60.9857 48.754 60.6878C48.4799 60.3899 48.0996 60.2185 47.7119 60.2185C47.3226 60.2185 46.9439 60.3897 46.6697 60.6878C46.3955 60.9858 46.2378 61.3989 46.2378 61.8201C46.2378 62.2413 46.3954 62.6545 46.6697 62.9522C46.9439 63.2503 47.3242 63.4216 47.7119 63.4216Z" fill="#E0B30E"/>
<path d="M71.0029 41.6405H68.1129C67.3891 39.8185 65.7198 38.5397 63.7802 38.5397H58.4732C56.5336 38.5397 54.8643 39.8185 54.1403 41.6405H51.2505C49.1219 41.6405 47.3001 43.0902 46.5749 45.128H40.7763C39.6934 45.128 38.8125 44.1709 38.8125 42.9946V40.8105C40.5422 39.7642 42.0358 38.3107 43.1815 36.5688H46.3906C49.2323 36.5688 51.5441 34.0571 51.5441 30.9698V27.5543C51.9172 26.9053 52.1338 26.1398 52.1338 25.32V21.288C52.1338 18.9555 50.3871 17.0579 48.2403 17.0579H45.6477V14.414C45.6477 6.46612 39.6961 0 32.3806 0C25.0652 0 19.1136 6.46612 19.1136 14.414V28.2077C19.1136 33.6216 21.8756 38.3472 25.9486 40.8105V42.9946C25.9486 44.1711 25.0677 45.128 23.9849 45.128H14.1418C6.64301 45.128 0.542236 51.7564 0.542236 59.9035C0.542236 62.7261 1.26735 65.4367 2.64668 67.7979C2.01738 69.5979 1.69897 71.4885 1.69897 73.4304C1.69897 76.1436 2.33889 78.823 3.54943 81.1789C3.81934 81.704 4.32084 82 4.83781 82C5.08104 82 5.32766 81.9345 5.55511 81.7964C6.26593 81.3653 6.52051 80.3896 6.12353 79.6174C5.15754 77.7378 4.64706 75.5983 4.64706 73.4304C4.64706 71.637 4.98699 69.8986 5.65742 68.2639C5.87131 67.7421 5.81338 67.1361 5.50529 66.6733C4.18699 64.6936 3.49017 62.3524 3.49017 59.9033C3.49017 53.5223 8.26837 48.331 14.1415 48.331H15.5739V57.1363C15.5739 60.2095 14.9348 63.3023 13.7254 66.0804C13.6322 66.2945 13.5839 66.5283 13.5839 66.765V80.3948C13.5839 81.2791 14.244 81.9963 15.058 81.9963C15.872 81.9963 16.5321 81.2791 16.5321 80.3948V67.1182C17.8349 64.0012 18.5222 60.5585 18.5222 57.1365V48.3311H21.4704V52.4375C21.4704 58.9733 26.3645 64.2905 32.3802 64.2905C38.396 64.2905 43.2901 58.9733 43.2901 52.4375V48.3311H46.2383V55.5513C46.2383 56.4356 46.8984 57.1528 47.7124 57.1528C48.5265 57.1528 49.1866 56.4356 49.1866 55.5513V47.0858C49.1866 45.8494 50.1123 44.8436 51.2503 44.8436H53.8832C54.3749 47.1027 56.2455 48.7896 58.473 48.7896H63.78C66.0075 48.7896 67.8781 47.1029 68.3697 44.8436H71.0027C72.1408 44.8436 73.0665 45.8494 73.0665 47.0858V76.5544C73.0665 77.7908 72.1408 78.7966 71.0027 78.7966H51.2505C50.1125 78.7966 49.1867 77.7908 49.1867 76.5544V69.0274C49.1867 68.143 48.5266 67.4258 47.7126 67.4258C46.8986 67.4258 46.2385 68.143 46.2385 69.0274V76.5544C46.2385 79.557 48.4868 81.9997 51.2505 81.9997H71.0029C73.7665 81.9997 76.0149 79.557 76.0149 76.5544V47.0858C76.0149 44.0832 73.7665 41.6405 71.0029 41.6405ZM46.3903 33.3657H44.7683C45.1942 32.1626 45.4755 30.8823 45.5893 29.55H48.2399C48.3597 29.55 48.4783 29.5433 48.5954 29.5316V30.9698C48.5956 32.2909 47.6063 33.3657 46.3903 33.3657ZM49.1852 21.288V25.32C49.1852 25.8861 48.7611 26.3469 48.24 26.3469H45.6474V20.261H48.24C48.7611 20.261 49.1852 20.7217 49.1852 21.288ZM32.3803 3.20311C38.0701 3.20311 42.6991 8.23232 42.6991 14.414V16.2268C40.925 15.5607 39.6467 13.729 39.6467 11.5781C39.6467 11.0831 39.4359 10.6159 39.0759 10.3126C38.7158 10.0092 38.2466 9.90418 37.8057 10.027C34.2563 11.0182 30.5045 11.0182 26.9551 10.027C26.5148 9.90434 26.045 10.0092 25.6849 10.3126C25.3249 10.6161 25.1141 11.0832 25.1141 11.5781C25.1141 13.7292 23.8358 15.5609 22.0617 16.2268V14.414C22.0615 8.23232 26.6907 3.20311 32.3803 3.20311ZM38.6621 17.0579H26.0985C26.9308 16.0707 27.5424 14.8604 27.8462 13.5199C30.8385 14.1241 33.9221 14.1241 36.9144 13.5199C37.2182 14.8604 37.8298 16.0707 38.6621 17.0579ZM22.0615 28.2077V20.261H42.6991V28.2077C42.6991 30.067 42.278 31.8205 41.5375 33.3657H33.1911C32.3771 33.3657 31.717 34.0829 31.717 34.9673C31.717 35.8516 32.3771 36.5688 33.1911 36.5688H39.2445C37.4193 38.3395 35.014 39.4186 32.3803 39.4186C26.6907 39.4186 22.0615 34.3894 22.0615 28.2077ZM32.3803 61.0874C27.9904 61.0874 24.4188 57.2069 24.4188 52.4375V48.3092C26.9245 48.0694 28.8965 45.7781 28.8965 42.9946V42.1164C30.0073 42.4451 31.1751 42.6217 32.3803 42.6217C33.5856 42.6217 34.7534 42.4451 35.8641 42.1164V42.9946C35.8641 45.7781 37.8362 48.0694 40.342 48.3092V52.4375C40.342 57.2069 36.7705 61.0874 32.3803 61.0874ZM63.7802 45.5865H58.4732C57.4978 45.5865 56.7043 44.7244 56.7043 43.6647C56.7043 42.6049 57.4978 41.7428 58.4732 41.7428H63.7802C64.7554 41.7428 65.549 42.6049 65.549 43.6647C65.549 44.7244 64.7554 45.5865 63.7802 45.5865Z" fill="#E0B30E"/>
</svg>
